<mxfile host="app.diagrams.net" agent="Mozilla/5.0 (Macintosh; Intel Mac OS X 10_15_7) AppleWebKit/537.36 (KHTML, like Gecko) Chrome/132.0.0.0 Safari/537.36" version="26.0.16">
  <diagram name="ページ1" id="O3Ll8yDsXppEkwpNZZdf">
    <mxGraphModel dx="741" dy="544" grid="1" gridSize="10" guides="1" tooltips="1" connect="1" arrows="1" fold="1" page="1" pageScale="1" pageWidth="827" pageHeight="1169" math="0" shadow="0">
      <root>
        <mxCell id="0" />
        <mxCell id="1" parent="0" />
        <mxCell id="d2VI5EknvyiLbHdJokdM-15" style="edgeStyle=orthogonalEdgeStyle;rounded=0;orthogonalLoop=1;jettySize=auto;html=1;exitX=1;exitY=0.5;exitDx=0;exitDy=0;entryX=0;entryY=0.5;entryDx=0;entryDy=0;" edge="1" parent="1" source="d2VI5EknvyiLbHdJokdM-2" target="d2VI5EknvyiLbHdJokdM-3">
          <mxGeometry relative="1" as="geometry" />
        </mxCell>
        <mxCell id="d2VI5EknvyiLbHdJokdM-17" style="edgeStyle=orthogonalEdgeStyle;rounded=0;orthogonalLoop=1;jettySize=auto;html=1;exitX=1;exitY=0.5;exitDx=0;exitDy=0;entryX=0;entryY=0.5;entryDx=0;entryDy=0;" edge="1" parent="1" source="d2VI5EknvyiLbHdJokdM-2" target="d2VI5EknvyiLbHdJokdM-5">
          <mxGeometry relative="1" as="geometry" />
        </mxCell>
        <mxCell id="d2VI5EknvyiLbHdJokdM-2" value="メニュー一覧" style="rounded=0;whiteSpace=wrap;html=1;" vertex="1" parent="1">
          <mxGeometry y="40" width="120" height="60" as="geometry" />
        </mxCell>
        <mxCell id="d2VI5EknvyiLbHdJokdM-16" style="edgeStyle=orthogonalEdgeStyle;rounded=0;orthogonalLoop=1;jettySize=auto;html=1;exitX=1;exitY=0.5;exitDx=0;exitDy=0;entryX=0;entryY=0.5;entryDx=0;entryDy=0;" edge="1" parent="1" source="d2VI5EknvyiLbHdJokdM-3" target="d2VI5EknvyiLbHdJokdM-4">
          <mxGeometry relative="1" as="geometry" />
        </mxCell>
        <mxCell id="d2VI5EknvyiLbHdJokdM-3" value="メニュー詳細" style="rounded=0;whiteSpace=wrap;html=1;" vertex="1" parent="1">
          <mxGeometry x="200" y="40" width="120" height="60" as="geometry" />
        </mxCell>
        <mxCell id="d2VI5EknvyiLbHdJokdM-14" style="edgeStyle=orthogonalEdgeStyle;rounded=0;orthogonalLoop=1;jettySize=auto;html=1;exitX=0.5;exitY=0;exitDx=0;exitDy=0;entryX=0.5;entryY=0;entryDx=0;entryDy=0;" edge="1" parent="1" source="d2VI5EknvyiLbHdJokdM-4" target="d2VI5EknvyiLbHdJokdM-3">
          <mxGeometry relative="1" as="geometry" />
        </mxCell>
        <mxCell id="d2VI5EknvyiLbHdJokdM-4" value="メニュー編集・登録&lt;br&gt;（編集）" style="rounded=0;whiteSpace=wrap;html=1;" vertex="1" parent="1">
          <mxGeometry x="400" y="40" width="120" height="60" as="geometry" />
        </mxCell>
        <mxCell id="d2VI5EknvyiLbHdJokdM-5" value="メニュー編集・登録&lt;br&gt;（登録）" style="rounded=0;whiteSpace=wrap;html=1;" vertex="1" parent="1">
          <mxGeometry x="200" y="120" width="120" height="60" as="geometry" />
        </mxCell>
        <mxCell id="d2VI5EknvyiLbHdJokdM-18" style="edgeStyle=orthogonalEdgeStyle;rounded=0;orthogonalLoop=1;jettySize=auto;html=1;exitX=1;exitY=0.5;exitDx=0;exitDy=0;" edge="1" parent="1" source="d2VI5EknvyiLbHdJokdM-6" target="d2VI5EknvyiLbHdJokdM-7">
          <mxGeometry relative="1" as="geometry" />
        </mxCell>
        <mxCell id="d2VI5EknvyiLbHdJokdM-19" style="edgeStyle=orthogonalEdgeStyle;rounded=0;orthogonalLoop=1;jettySize=auto;html=1;exitX=1;exitY=0.5;exitDx=0;exitDy=0;entryX=0;entryY=0.5;entryDx=0;entryDy=0;" edge="1" parent="1" source="d2VI5EknvyiLbHdJokdM-6" target="d2VI5EknvyiLbHdJokdM-8">
          <mxGeometry relative="1" as="geometry" />
        </mxCell>
        <mxCell id="d2VI5EknvyiLbHdJokdM-6" value="材料一覧" style="rounded=0;whiteSpace=wrap;html=1;" vertex="1" parent="1">
          <mxGeometry y="200" width="120" height="60" as="geometry" />
        </mxCell>
        <mxCell id="d2VI5EknvyiLbHdJokdM-7" value="材料編集・登録&lt;br&gt;（編集）" style="rounded=0;whiteSpace=wrap;html=1;" vertex="1" parent="1">
          <mxGeometry x="200" y="200" width="120" height="60" as="geometry" />
        </mxCell>
        <mxCell id="d2VI5EknvyiLbHdJokdM-8" value="材料編集・登録&lt;br&gt;（登録）" style="rounded=0;whiteSpace=wrap;html=1;" vertex="1" parent="1">
          <mxGeometry x="200" y="280" width="120" height="60" as="geometry" />
        </mxCell>
        <mxCell id="d2VI5EknvyiLbHdJokdM-9" value="夕飯一覧" style="rounded=0;whiteSpace=wrap;html=1;" vertex="1" parent="1">
          <mxGeometry y="360" width="120" height="60" as="geometry" />
        </mxCell>
        <mxCell id="d2VI5EknvyiLbHdJokdM-22" style="edgeStyle=orthogonalEdgeStyle;rounded=0;orthogonalLoop=1;jettySize=auto;html=1;exitX=1;exitY=0.5;exitDx=0;exitDy=0;entryX=0;entryY=0.5;entryDx=0;entryDy=0;" edge="1" parent="1" source="d2VI5EknvyiLbHdJokdM-10" target="d2VI5EknvyiLbHdJokdM-21">
          <mxGeometry relative="1" as="geometry" />
        </mxCell>
        <mxCell id="d2VI5EknvyiLbHdJokdM-10" value="ユーザー画面" style="rounded=0;whiteSpace=wrap;html=1;" vertex="1" parent="1">
          <mxGeometry y="440" width="120" height="60" as="geometry" />
        </mxCell>
        <mxCell id="d2VI5EknvyiLbHdJokdM-21" value="パスワード再設定&lt;br&gt;メール送信画面" style="rounded=0;whiteSpace=wrap;html=1;" vertex="1" parent="1">
          <mxGeometry x="200" y="440" width="120" height="60" as="geometry" />
        </mxCell>
        <mxCell id="d2VI5EknvyiLbHdJokdM-23" value="カードタップ" style="text;html=1;align=center;verticalAlign=middle;whiteSpace=wrap;rounded=0;fontSize=10;" vertex="1" parent="1">
          <mxGeometry x="120" y="50" width="80" height="20" as="geometry" />
        </mxCell>
        <mxCell id="d2VI5EknvyiLbHdJokdM-24" value="フローティング&lt;div&gt;ボタン&lt;/div&gt;" style="text;html=1;align=center;verticalAlign=middle;whiteSpace=wrap;rounded=0;fontSize=10;" vertex="1" parent="1">
          <mxGeometry x="110" y="150" width="110" height="30" as="geometry" />
        </mxCell>
        <mxCell id="d2VI5EknvyiLbHdJokdM-25" value="フローティング&lt;div&gt;ボタン&lt;/div&gt;" style="text;html=1;align=center;verticalAlign=middle;whiteSpace=wrap;rounded=0;fontSize=10;" vertex="1" parent="1">
          <mxGeometry x="110" y="310" width="110" height="30" as="geometry" />
        </mxCell>
        <mxCell id="d2VI5EknvyiLbHdJokdM-26" value="編集アイコン" style="text;html=1;align=center;verticalAlign=middle;whiteSpace=wrap;rounded=0;fontSize=10;" vertex="1" parent="1">
          <mxGeometry x="120" y="210" width="80" height="20" as="geometry" />
        </mxCell>
        <mxCell id="d2VI5EknvyiLbHdJokdM-27" value="編集アイコン" style="text;html=1;align=center;verticalAlign=middle;whiteSpace=wrap;rounded=0;fontSize=10;" vertex="1" parent="1">
          <mxGeometry x="320" y="50" width="80" height="20" as="geometry" />
        </mxCell>
        <mxCell id="d2VI5EknvyiLbHdJokdM-28" value="リンク" style="text;html=1;align=center;verticalAlign=middle;whiteSpace=wrap;rounded=0;fontSize=10;" vertex="1" parent="1">
          <mxGeometry x="130" y="450" width="60" height="20" as="geometry" />
        </mxCell>
        <mxCell id="d2VI5EknvyiLbHdJokdM-29" value="更新ボタン" style="text;html=1;align=center;verticalAlign=middle;whiteSpace=wrap;rounded=0;fontSize=10;" vertex="1" parent="1">
          <mxGeometry x="320" width="80" height="20" as="geometry" />
        </mxCell>
      </root>
    </mxGraphModel>
  </diagram>
</mxfile>
